<svg xmlns="http://www.w3.org/2000/svg" width="154.746" height="41.288" viewBox="0 0 154.746 41.288">
  <g id="logo" transform="translate(-110.057 -379)">
    <path id="manero" d="M0,25.92V.288H3.708l9.684,22.068H11.628L21.24.288h3.708V25.92h-4.14L20.772,6.948,22,7.236,14,25.92h-3.06L2.772,7.236l1.3-.288L4.1,25.92Z" transform="translate(110.057 394.08)" fill="#111"/>
    <path id="manero-2" data-name="manero" d="M32.422,25.92h-4.68L39.334.288h3.78L54.706,25.92H50.1L40.666,3.888h1.26Zm.432-6.012,1.764-3.6H47.686l1.692,3.6Z" transform="translate(110.057 394.08)" fill="#111"/>
    <path id="manero-3" data-name="manero" d="M57.479,25.92V.288h3.456l14.76,19.188-.972.5V.288h4.356V25.92H75.587L60.9,6.8l.936-.576V25.92Z" transform="translate(110.057 394.08)" fill="#111"/>
    <path id="manero-4" data-name="manero" d="M84.655,25.92V.288h17.136V3.924h-12.6v7.128h11.88v3.672H89.191v7.56h12.6V25.92Z" transform="translate(110.057 394.08)" fill="#111"/>
    <path id="manero-5" data-name="manero" d="M106.065,25.92V.288h10.98q4.356,0,6.624,1.908a6.751,6.751,0,0,1,2.268,5.472,6.767,6.767,0,0,1-2.34,5.4,9.786,9.786,0,0,1-6.516,1.98l2.88-.576a3.828,3.828,0,0,1,2.376.792,5.261,5.261,0,0,1,1.656,2.448l3.168,8.208h-4.9l-3.24-8.532a2.943,2.943,0,0,0-1.44-1.692,5.236,5.236,0,0,0-2.268-.432h-4.68V25.92ZM110.6,11.664h5.8a6.252,6.252,0,0,0,3.888-.972,3.5,3.5,0,0,0,1.224-2.916,3.437,3.437,0,0,0-1.224-2.916,6.435,6.435,0,0,0-3.888-.936h-5.8Z" transform="translate(110.057 394.08)" fill="#111"/>
    <path id="manero-6" data-name="manero" d="M142.542,26.208a12.711,12.711,0,0,1-6.48-1.584,10.563,10.563,0,0,1-4.212-4.536,15.447,15.447,0,0,1-1.476-6.984A15.306,15.306,0,0,1,131.85,6.12a10.563,10.563,0,0,1,4.212-4.536,14.12,14.12,0,0,1,13,0A10.563,10.563,0,0,1,153.27,6.12a15.219,15.219,0,0,1,1.476,6.948,15.223,15.223,0,0,1-1.512,7.02,10.563,10.563,0,0,1-4.212,4.536A12.588,12.588,0,0,1,142.542,26.208Zm0-3.672a6.837,6.837,0,0,0,5.544-2.412q2.016-2.448,2.016-7.056t-2.016-6.984a7.536,7.536,0,0,0-11.052,0q-2.016,2.376-2.016,6.984t2.016,7.056A6.8,6.8,0,0,0,142.542,22.536Z" transform="translate(110.057 394.08)" fill="#111"/>
    <g id="Rectangle_27" data-name="Rectangle 27" transform="translate(178 379)" fill="none" stroke="#111" stroke-width="1.2">
      <rect width="18" height="5" rx="2.5" stroke="none"/>
      <rect x="0.6" y="0.6" width="16.8" height="3.8" rx="1.9" fill="none"/>
    </g>
  </g>
</svg>
